<svg xmlns="http://www.w3.org/2000/svg" viewBox="0 0 1000 1000" width="1000" height="1000">
  <g fill="#EDE6D6">
    <circle cx="40" cy="70" r="1.1" opacity="0.6" /><circle cx="150" cy="30" r="0.8" opacity="0.4" />
    <circle cx="240" cy="110" r="1.4" opacity="0.7" /><circle cx="330" cy="60" r="0.7" opacity="0.35" />
    <circle cx="420" cy="140" r="1" opacity="0.5" /><circle cx="520" cy="40" r="1.2" opacity="0.6" />
    <circle cx="610" cy="120" r="0.8" opacity="0.4" /><circle cx="700" cy="60" r="1.5" opacity="0.75" />
    <circle cx="800" cy="150" r="0.9" opacity="0.45" /><circle cx="900" cy="80" r="1.1" opacity="0.55" />
    <circle cx="70" cy="230" r="0.9" opacity="0.45" /><circle cx="180" cy="300" r="1.3" opacity="0.65" />
    <circle cx="290" cy="250" r="0.7" opacity="0.35" /><circle cx="390" cy="330" r="1" opacity="0.5" />
    <circle cx="500" cy="270" r="0.8" opacity="0.4" /><circle cx="590" cy="350" r="1.4" opacity="0.7" />
    <circle cx="690" cy="290" r="0.9" opacity="0.45" /><circle cx="790" cy="360" r="1.1" opacity="0.55" />
    <circle cx="880" cy="300" r="0.7" opacity="0.35" /><circle cx="960" cy="380" r="1.2" opacity="0.6" />
    <circle cx="50" cy="470" r="1.3" opacity="0.65" /><circle cx="160" cy="540" r="0.8" opacity="0.4" />
    <circle cx="270" cy="490" r="1" opacity="0.5" /><circle cx="380" cy="560" r="0.7" opacity="0.35" />
    <circle cx="480" cy="510" r="1.5" opacity="0.75" /><circle cx="600" cy="580" r="0.9" opacity="0.45" />
    <circle cx="710" cy="520" r="1.1" opacity="0.55" /><circle cx="820" cy="590" r="0.8" opacity="0.4" />
    <circle cx="930" cy="530" r="1.3" opacity="0.65" /><circle cx="110" cy="700" r="1" opacity="0.5" />
    <circle cx="230" cy="760" r="0.7" opacity="0.35" /><circle cx="350" cy="710" r="1.2" opacity="0.6" />
    <circle cx="470" cy="780" r="0.9" opacity="0.45" /><circle cx="590" cy="720" r="1.4" opacity="0.7" />
    <circle cx="720" cy="790" r="0.8" opacity="0.4" /><circle cx="850" cy="730" r="1.1" opacity="0.55" />
  </g>
  <g fill="#C6A15B">
    <circle cx="330" cy="420" r="1.2" opacity="0.5" /><circle cx="660" cy="460" r="1" opacity="0.45" />
    <circle cx="200" cy="640" r="0.9" opacity="0.4" /><circle cx="780" cy="660" r="1.1" opacity="0.5" />
  </g>
</svg>
