<svg xmlns="http://www.w3.org/2000/svg" viewBox="0 0 1200 1200" width="1200" height="1200"><path d="M670.0 600.0L671.3 602.0L672.4 604.1L673.4 606.3L674.2 608.5L674.6 610.7L674.8 612.9L674.7 615.1L674.3 617.3L673.7 619.4L672.9 621.4L671.9 623.4L670.8 625.3L669.6 627.1L668.5 628.9L667.3 630.7L666.2 632.5L665.1 634.3L664.0 636.1L662.9 637.9L661.7 639.7L660.5 641.4L659.3 643.1L657.9 644.6L656.4 646.1L654.8 647.5L653.1 648.7L651.3 649.9L649.5 650.9L647.6 651.8L645.7 652.7L643.8 653.5L642.0 654.4L640.2 655.3L638.5 656.3L636.9 657.4L635.4 658.6L633.8 659.9L632.3 661.2L630.8 662.6L629.2 664.0L627.6 665.3L625.9 666.4L624.0 667.4L622.1 668.2L620.2 668.7L618.1 668.9L616.0 668.9L613.9 668.7L611.8 668.2L609.7 667.6L607.7 666.9L605.7 666.2L603.7 665.4L601.9 664.8L600.0 664.3L598.2 663.8L596.4 663.6L594.6 663.4L592.7 663.4L590.9 663.4L589.0 663.5L587.1 663.5L585.2 663.6L583.3 663.5L581.4 663.3L579.5 663.1L577.6 662.7L575.8 662.3L573.9 661.8L572.0 661.2L570.2 660.7L568.3 660.1L566.3 659.6L564.3 659.2L562.2 658.8L560.1 658.4L557.9 658.0L555.6 657.6L553.3 657.1L551.0 656.5L548.8 655.8L546.7 654.9L544.7 653.8L542.9 652.4L541.3 650.8L540.0 649.1L538.9 647.1L538.1 645.0L537.4 642.8L537.0 640.5L536.6 638.2L536.3 636.0L536.1 633.7L535.8 631.6L535.4 629.5L535.0 627.5L534.5 625.5L533.9 623.6L533.2 621.7L532.4 619.8L531.7 617.9L531.0 616.0L530.4 614.1L529.9 612.1L529.6 610.1L529.4 608.1L529.3 606.1L529.4 604.0L529.7 602.0L530.0 600.0L530.4 598.0L530.8 596.0L531.2 594.1L531.6 592.1L531.9 590.2L532.1 588.3L532.4 586.3L532.6 584.3L532.9 582.4L533.2 580.4L533.7 578.4L534.3 576.5L535.1 574.7L536.0 573.0L537.2 571.3L538.6 569.8L540.1 568.4L541.8 567.1L543.5 565.9L545.3 564.8L547.0 563.8L548.7 562.7L550.2 561.6L551.6 560.4L552.9 559.1L554.0 557.7L554.9 556.2L555.8 554.5L556.6 552.7L557.3 550.7L558.1 548.7L558.9 546.7L559.9 544.7L560.9 542.8L562.1 541.0L563.4 539.3L564.8 537.7L566.4 536.3L568.1 535.0L569.8 533.9L571.6 532.8L573.5 531.8L575.3 530.9L577.2 529.9L579.2 529.0L581.1 528.1L583.1 527.2L585.1 526.3L587.1 525.5L589.2 524.8L591.3 524.3L593.5 523.9L595.6 523.8L597.8 523.9L600.0 524.3L602.1 524.9L604.2 525.7L606.3 526.7L608.3 527.8L610.2 529.0L612.1 530.3L613.9 531.4L615.7 532.5L617.5 533.5L619.3 534.3L621.1 535.0L623.0 535.5L624.9 536.0L626.9 536.3L628.9 536.6L631.0 537.0L633.0 537.4L635.0 538.0L636.9 538.7L638.8 539.7L640.5 540.8L642.1 542.1L643.5 543.6L644.8 545.2L646.0 546.9L647.1 548.7L648.1 550.5L649.1 552.3L650.0 554.1L651.0 555.8L652.0 557.5L653.0 559.2L654.0 560.8L655.0 562.4L656.1 564.0L657.0 565.6L657.9 567.3L658.8 569.0L659.5 570.8L660.0 572.6L660.5 574.4L660.8 576.3L661.1 578.2L661.3 580.1L661.5 582.0L661.7 583.8L662.0 585.6L662.5 587.3L663.1 589.1L663.9 590.8L664.9 592.6L666.1 594.3L667.3 596.2L668.7 598.0L670.0 600.0Z" fill="none" stroke="#14131A" stroke-opacity="0.10" stroke-width="1"></path><path d="M714.1 600.0L715.0 603.3L715.8 606.6L716.4 610.0L716.6 613.4L716.6 616.8L716.4 620.1L715.9 623.5L715.2 626.8L714.3 630.0L713.4 633.3L712.4 636.5L711.4 639.7L710.4 643.0L709.5 646.3L708.5 649.5L707.4 652.8L706.3 656.1L705.0 659.3L703.5 662.4L701.7 665.4L699.6 668.1L697.2 670.6L694.4 672.8L691.4 674.7L688.0 676.3L684.5 677.5L680.8 678.5L677.1 679.3L673.4 679.9L669.8 680.5L666.3 681.1L663.1 681.8L660.0 682.6L657.2 683.6L654.6 684.9L652.1 686.4L649.8 688.1L647.5 690.0L645.2 692.0L642.9 694.0L640.6 696.0L638.1 697.9L635.6 699.7L632.9 701.3L630.1 702.6L627.3 703.7L624.3 704.7L621.4 705.4L618.4 706.1L615.3 706.7L612.3 707.3L609.3 707.9L606.2 708.6L603.1 709.4L600.0 710.2L596.8 711.0L593.6 711.8L590.3 712.5L587.0 713.0L583.7 713.3L580.4 713.3L577.1 712.9L573.9 712.3L570.8 711.2L567.7 709.9L564.8 708.3L562.0 706.5L559.3 704.6L556.6 702.6L554.0 700.7L551.3 699.0L548.6 697.4L545.8 696.0L542.9 694.8L539.7 693.8L536.5 692.9L533.1 692.1L529.6 691.3L526.1 690.4L522.6 689.4L519.1 688.1L515.8 686.6L512.8 684.8L509.9 682.7L507.4 680.2L505.2 677.5L503.3 674.6L501.7 671.4L500.3 668.2L499.1 664.9L498.0 661.5L497.1 658.1L496.2 654.8L495.3 651.5L494.4 648.2L493.6 645.0L492.8 641.7L492.1 638.5L491.5 635.2L491.2 632.0L491.0 628.6L491.1 625.3L491.5 622.0L492.2 618.7L493.1 615.4L494.2 612.1L495.4 609.0L496.7 605.9L497.9 602.9L499.0 600.0L499.9 597.1L500.5 594.3L500.8 591.5L500.8 588.6L500.5 585.7L499.9 582.7L499.2 579.6L498.4 576.4L497.6 573.1L496.9 569.7L496.4 566.3L496.2 563.0L496.3 559.6L496.8 556.4L497.7 553.3L498.9 550.3L500.4 547.4L502.2 544.7L504.1 542.2L506.1 539.7L508.2 537.2L510.3 534.8L512.3 532.4L514.3 529.9L516.2 527.4L518.0 524.8L519.9 522.1L521.8 519.5L523.7 516.9L525.7 514.3L527.9 511.8L530.2 509.5L532.7 507.4L535.4 505.5L538.2 503.8L541.0 502.2L544.0 500.8L547.0 499.5L550.0 498.2L552.9 496.9L555.9 495.6L558.7 494.0L561.6 492.4L564.4 490.5L567.3 488.6L570.2 486.5L573.1 484.4L576.2 482.4L579.3 480.5L582.6 478.9L586.0 477.7L589.4 476.8L592.9 476.5L596.5 476.6L600.0 477.2L603.5 478.3L606.9 479.9L610.2 481.7L613.3 483.8L616.4 486.0L619.3 488.3L622.2 490.6L625.0 492.7L627.7 494.7L630.4 496.5L633.1 498.2L635.8 499.8L638.5 501.2L641.2 502.6L643.8 504.0L646.5 505.5L649.1 507.0L651.5 508.7L654.0 510.5L656.3 512.5L658.5 514.5L660.6 516.5L662.7 518.6L664.9 520.7L667.0 522.6L669.3 524.5L671.7 526.3L674.2 527.9L676.9 529.4L679.8 530.9L682.8 532.3L685.8 533.8L688.9 535.4L691.9 537.1L694.8 539.1L697.5 541.2L699.9 543.6L701.9 546.2L703.6 549.1L704.8 552.1L705.8 555.3L706.4 558.6L706.7 561.9L706.9 565.3L707.0 568.6L707.1 571.9L707.2 575.1L707.6 578.2L708.1 581.3L708.8 584.4L709.6 587.4L710.7 590.5L711.8 593.6L713.0 596.8L714.1 600.0Z" fill="none" stroke="#14131A" stroke-opacity="0.10" stroke-width="1"></path><path d="M765.5 600.0L764.5 604.7L763.1 609.3L761.2 613.8L758.9 618.2L756.3 622.5L753.6 626.6L750.8 630.6L748.1 634.4L745.5 638.3L743.3 642.1L741.3 645.9L739.7 649.8L738.4 653.9L737.3 658.0L736.5 662.3L735.7 666.7L734.9 671.2L733.9 675.6L732.7 680.0L731.1 684.3L729.1 688.3L726.7 692.0L723.8 695.5L720.6 698.6L717.0 701.3L713.1 703.8L709.1 706.0L704.9 708.0L700.8 709.8L696.7 711.6L692.7 713.4L688.9 715.3L685.2 717.3L681.6 719.3L678.1 721.5L674.6 723.7L671.1 726.0L667.6 728.2L664.0 730.2L660.3 732.1L656.5 733.7L652.6 735.2L648.6 736.3L644.6 737.3L640.6 738.2L636.5 739.0L632.5 739.8L628.5 740.8L624.6 741.9L620.6 743.4L616.7 745.2L612.6 747.3L608.6 749.7L604.3 752.3L600.0 755.0L595.5 757.7L590.8 760.3L586.0 762.7L581.1 764.5L576.1 765.9L571.2 766.6L566.2 766.7L561.4 766.1L556.7 764.8L552.2 762.9L547.8 760.5L543.7 757.8L539.7 754.8L535.9 751.6L532.2 748.4L528.6 745.2L525.0 742.2L521.4 739.2L517.8 736.4L514.1 733.6L510.5 730.9L506.9 728.1L503.4 725.3L500.0 722.3L496.8 719.1L493.8 715.8L491.0 712.2L488.5 708.4L486.2 704.4L484.1 700.4L482.2 696.3L480.4 692.2L478.6 688.2L476.7 684.3L474.7 680.5L472.5 676.9L470.1 673.3L467.6 669.9L464.9 666.4L462.1 663.0L459.3 659.4L456.7 655.8L454.3 652.0L452.2 648.0L450.6 643.9L449.6 639.5L449.0 635.1L449.1 630.6L449.7 626.0L450.7 621.5L452.1 617.0L453.7 612.6L455.3 608.3L457.0 604.1L458.5 600.0L459.7 596.0L460.6 592.0L461.2 588.1L461.4 584.1L461.3 580.1L461.0 575.9L460.5 571.7L460.0 567.4L459.6 563.1L459.3 558.7L459.2 554.2L459.4 549.8L459.8 545.4L460.6 541.1L461.6 536.8L462.8 532.5L464.1 528.3L465.5 524.0L466.9 519.7L468.3 515.3L469.7 510.9L471.0 506.3L472.4 501.6L473.8 496.8L475.4 492.1L477.2 487.3L479.3 482.7L481.8 478.4L484.7 474.3L488.0 470.7L491.7 467.6L495.9 465.0L500.4 462.9L505.2 461.4L510.2 460.3L515.4 459.6L520.5 459.3L525.6 459.1L530.6 458.9L535.5 458.7L540.1 458.4L544.6 457.8L549.0 456.9L553.2 455.8L557.3 454.5L561.3 452.9L565.4 451.3L569.6 449.8L573.7 448.3L578.0 447.1L582.3 446.1L586.7 445.5L591.2 445.3L595.6 445.5L600.0 446.0L604.4 446.8L608.7 447.8L613.0 448.9L617.2 450.1L621.4 451.2L625.6 452.3L629.7 453.2L633.9 454.1L638.1 455.0L642.3 455.9L646.5 456.8L650.7 457.9L654.8 459.3L658.8 460.9L662.6 463.0L666.2 465.4L669.6 468.1L672.7 471.3L675.6 474.6L678.3 478.2L680.8 481.8L683.2 485.4L685.7 488.9L688.2 492.1L690.9 495.1L693.8 497.8L697.1 500.1L700.6 502.2L704.6 504.0L708.8 505.7L713.2 507.4L717.9 509.1L722.6 511.0L727.2 513.0L731.7 515.4L735.9 518.0L739.8 521.0L743.3 524.4L746.4 528.0L749.1 531.9L751.4 536.0L753.3 540.3L755.1 544.7L756.6 549.1L758.0 553.6L759.3 558.1L760.6 562.7L761.8 567.2L763.0 571.8L764.1 576.4L765.0 581.1L765.7 585.8L766.0 590.5L766.0 595.3L765.5 600.0Z" fill="none" stroke="#14131A" stroke-opacity="0.10" stroke-width="1"></path><path d="M813.1 600.0L811.5 606.0L809.2 612.0L806.1 617.7L802.4 623.2L798.3 628.5L793.9 633.6L789.5 638.4L785.2 643.1L781.1 647.6L777.4 652.1L774.1 656.6L771.1 661.0L768.5 665.6L766.2 670.2L764.1 674.9L762.0 679.7L760.0 684.4L757.9 689.2L755.5 693.8L753.0 698.3L750.2 702.7L747.2 707.0L744.0 711.1L740.7 715.1L737.4 719.0L734.0 723.0L730.8 727.1L727.6 731.3L724.6 735.8L721.7 740.4L718.8 745.3L716.0 750.4L713.1 755.7L710.1 760.9L706.8 766.1L703.1 771.1L699.2 775.6L694.8 779.7L690.1 783.2L685.0 786.0L679.5 788.2L673.8 789.7L668.0 790.6L662.1 791.0L656.1 791.0L650.2 790.9L644.4 790.8L638.6 790.7L633.0 790.9L627.5 791.5L622.1 792.4L616.6 793.7L611.2 795.3L605.6 797.1L600.0 799.1L594.3 801.0L588.4 802.7L582.5 804.1L576.5 805.1L570.4 805.6L564.4 805.5L558.5 804.9L552.6 803.7L546.9 802.1L541.2 800.2L535.7 797.9L530.2 795.5L524.9 793.0L519.5 790.5L514.2 787.9L508.9 785.4L503.6 782.8L498.3 780.1L493.2 777.2L488.2 774.0L483.4 770.5L479.0 766.6L474.9 762.2L471.3 757.3L468.3 752.0L465.7 746.3L463.7 740.3L462.1 734.0L460.8 727.7L459.8 721.4L458.9 715.4L458.0 709.5L456.8 704.0L455.4 698.9L453.5 694.2L451.2 689.8L448.4 685.6L445.1 681.7L441.5 677.9L437.6 674.2L433.5 670.3L429.5 666.4L425.6 662.2L422.0 657.8L418.8 653.2L416.1 648.4L413.7 643.3L411.9 638.1L410.5 632.8L409.3 627.4L408.5 622.0L407.7 616.5L407.0 611.0L406.3 605.5L405.6 600.0L404.7 594.4L403.8 588.8L402.9 583.1L402.2 577.3L401.6 571.5L401.4 565.6L401.5 559.8L402.2 554.0L403.4 548.3L405.2 542.8L407.5 537.5L410.3 532.3L413.5 527.4L416.9 522.6L420.3 518.0L423.8 513.4L427.1 508.8L430.2 504.1L432.9 499.2L435.3 494.2L437.5 488.9L439.4 483.3L441.1 477.5L442.8 471.5L444.7 465.4L446.8 459.4L449.2 453.5L452.2 447.9L455.6 442.7L459.6 438.0L464.1 433.9L469.2 430.3L474.6 427.5L480.4 425.1L486.5 423.3L492.6 421.9L498.8 420.9L505.0 420.0L511.1 419.2L517.1 418.5L523.0 417.7L528.7 416.9L534.4 416.1L540.0 415.3L545.6 414.6L551.1 414.1L556.7 413.8L562.3 413.8L567.9 414.2L573.4 415.0L578.9 416.1L584.3 417.6L589.7 419.2L594.9 420.9L600.0 422.6L605.0 424.1L610.0 425.3L614.9 426.1L619.9 426.4L625.0 426.2L630.2 425.6L635.6 424.5L641.1 423.1L646.9 421.6L652.8 420.1L658.9 418.8L665.0 417.9L671.1 417.4L677.1 417.6L682.9 418.5L688.5 420.0L693.8 422.3L698.8 425.1L703.5 428.4L707.9 432.2L712.1 436.1L716.1 440.2L720.1 444.3L724.0 448.3L728.1 452.2L732.2 455.9L736.5 459.6L740.9 463.1L745.4 466.6L749.9 470.1L754.4 473.8L758.7 477.6L762.9 481.7L766.7 486.0L770.3 490.6L773.4 495.4L776.3 500.5L778.8 505.7L781.1 511.0L783.2 516.3L785.2 521.7L787.4 527.1L789.6 532.4L792.0 537.6L794.6 542.8L797.5 548.1L800.4 553.4L803.4 558.8L806.2 564.3L808.9 570.0L811.1 575.8L812.7 581.7L813.7 587.8L813.8 593.9L813.1 600.0Z" fill="none" stroke="#14131A" stroke-opacity="0.10" stroke-width="1"></path><path d="M837.6 600.0L836.9 606.8L835.6 613.5L833.9 620.1L831.9 626.6L829.8 633.0L827.5 639.4L825.4 645.7L823.3 651.9L821.4 658.2L819.6 664.5L817.9 670.8L816.2 677.1L814.3 683.4L812.2 689.7L809.8 695.8L806.9 701.7L803.5 707.4L799.6 712.7L795.3 717.7L790.5 722.4L785.5 726.8L780.3 731.0L775.1 735.0L770.0 739.0L765.2 743.1L760.7 747.5L756.6 752.2L753.0 757.4L749.7 763.2L746.8 769.4L744.0 776.1L741.3 783.2L738.5 790.6L735.4 798.0L732.0 805.4L728.1 812.5L723.8 819.1L718.8 825.2L713.3 830.5L707.3 835.1L700.9 838.8L694.2 841.8L687.1 844.2L679.9 846.0L672.6 847.3L665.3 848.4L658.0 849.2L650.7 850.0L643.4 850.7L636.1 851.4L628.9 852.0L621.7 852.5L614.5 852.8L607.2 852.7L600.0 852.2L592.8 851.1L585.7 849.4L578.8 847.1L572.0 844.2L565.4 840.8L559.0 836.9L552.8 832.8L546.9 828.5L541.0 824.3L535.3 820.3L529.6 816.7L523.8 813.5L517.9 810.8L511.8 808.6L505.5 806.9L499.0 805.4L492.3 804.1L485.5 802.8L478.7 801.2L471.9 799.3L465.3 796.9L459.1 793.9L453.3 790.2L448.0 785.9L443.3 780.9L439.1 775.3L435.5 769.2L432.4 762.9L429.6 756.4L427.1 749.8L424.7 743.4L422.2 737.1L419.7 731.0L416.9 725.2L413.9 719.6L410.6 714.2L407.1 708.9L403.5 703.7L399.8 698.4L396.2 693.1L392.8 687.6L389.6 681.9L386.7 676.1L384.1 670.1L381.9 664.0L380.0 657.8L378.2 651.6L376.5 645.3L374.8 639.0L372.9 632.7L370.7 626.3L368.2 619.9L365.3 613.4L362.0 606.8L358.5 600.0L354.8 593.0L351.2 585.8L347.8 578.3L344.9 570.7L342.6 563.0L341.1 555.2L340.6 547.4L341.2 539.8L342.8 532.4L345.5 525.3L349.1 518.5L353.6 512.1L358.7 506.0L364.2 500.3L369.9 494.9L375.7 489.7L381.4 484.7L386.9 479.7L392.1 474.6L397.0 469.5L401.7 464.4L406.1 459.1L410.5 453.9L414.8 448.6L419.3 443.4L424.0 438.5L428.9 433.7L434.1 429.3L439.6 425.3L445.4 421.6L451.4 418.3L457.5 415.2L463.7 412.4L469.9 409.7L475.9 406.9L481.9 404.1L487.6 401.0L493.3 397.8L498.8 394.2L504.3 390.5L509.8 386.6L515.4 382.6L521.1 378.9L527.0 375.4L533.2 372.3L539.5 369.9L546.1 368.3L552.9 367.4L559.8 367.4L566.7 368.2L573.6 369.7L580.4 371.7L587.1 374.2L593.6 376.7L600.0 379.3L606.2 381.5L612.4 383.4L618.5 384.8L624.6 385.5L630.8 385.7L637.2 385.3L643.7 384.5L650.4 383.4L657.3 382.2L664.3 381.0L671.5 380.1L678.7 379.5L685.9 379.4L693.1 379.8L700.1 380.8L707.1 382.2L713.9 384.2L720.6 386.5L727.2 389.1L733.7 392.0L740.3 394.9L746.8 397.9L753.5 400.9L760.2 404.0L767.0 407.2L773.8 410.6L780.5 414.3L787.0 418.3L793.1 422.8L798.8 427.8L803.8 433.3L808.1 439.5L811.7 446.2L814.4 453.4L816.3 461.0L817.4 468.9L818.0 476.9L818.1 484.9L817.9 492.9L817.6 500.6L817.4 508.1L817.5 515.3L818.0 522.2L818.9 528.9L820.4 535.3L822.3 541.6L824.5 547.8L827.0 554.0L829.6 560.3L832.0 566.6L834.2 573.1L835.9 579.7L837.1 586.4L837.7 593.2L837.6 600.0Z" fill="none" stroke="#14131A" stroke-opacity="0.10" stroke-width="1"></path><path d="M855.2 600.0L853.6 607.2L852.1 614.4L850.9 621.5L850.2 628.7L850.0 635.9L850.4 643.3L851.4 650.9L852.9 658.8L854.8 667.0L856.9 675.4L858.9 684.1L860.7 693.0L861.9 702.0L862.4 710.9L862.0 719.6L860.6 728.1L858.1 736.2L854.7 743.8L850.3 750.9L845.1 757.5L839.3 763.6L833.1 769.3L826.6 774.8L820.1 780.0L813.7 785.2L807.5 790.5L801.6 795.9L795.9 801.6L790.4 807.5L785.1 813.6L779.8 819.9L774.4 826.2L768.9 832.4L763.0 838.4L756.9 844.1L750.3 849.3L743.5 854.0L736.2 858.2L728.8 861.9L721.0 865.1L713.2 867.9L705.3 870.5L697.4 873.0L689.5 875.5L681.7 878.1L673.8 880.9L666.0 883.9L658.2 887.0L650.2 890.2L642.2 893.3L634.0 896.1L625.6 898.3L617.1 899.9L608.6 900.5L600.0 900.1L591.5 898.5L583.1 895.8L574.9 892.0L567.0 887.2L559.5 881.6L552.3 875.4L545.5 868.9L539.0 862.3L532.7 856.0L526.6 850.0L520.5 844.6L514.4 839.8L508.2 835.7L501.8 832.3L495.3 829.4L488.4 826.9L481.5 824.7L474.3 822.5L467.2 820.3L460.0 817.8L453.0 815.0L446.1 811.8L439.5 808.2L433.1 804.2L426.8 799.8L420.8 795.3L414.8 790.5L408.9 785.8L402.8 781.0L396.6 776.3L390.1 771.6L383.4 767.1L376.4 762.4L369.3 757.7L362.2 752.8L355.2 747.6L348.4 742.1L342.2 736.0L336.6 729.5L331.8 722.5L328.0 715.0L325.1 707.0L323.1 698.8L322.1 690.3L321.7 681.7L321.9 673.1L322.5 664.5L323.1 656.1L323.6 647.8L323.8 639.7L323.6 631.7L322.8 623.8L321.4 615.9L319.5 608.0L317.2 600.0L314.7 591.8L312.1 583.5L309.8 575.1L307.8 566.5L306.5 557.8L305.9 549.1L306.2 540.5L307.4 532.0L309.4 523.6L312.3 515.5L315.8 507.7L319.8 500.0L324.2 492.6L328.8 485.4L333.6 478.3L338.3 471.3L343.0 464.4L347.8 457.6L352.5 450.8L357.4 444.1L362.4 437.6L367.8 431.3L373.6 425.4L379.9 420.1L386.8 415.2L394.1 411.0L401.9 407.5L410.1 404.6L418.5 402.3L427.0 400.4L435.5 398.8L443.8 397.4L451.7 395.9L459.2 394.1L466.2 391.8L472.7 388.9L478.7 385.3L484.4 380.9L489.8 375.9L495.1 370.2L500.3 364.1L505.7 357.8L511.3 351.4L517.2 345.2L523.5 339.5L530.2 334.3L537.2 329.9L544.5 326.3L552.1 323.4L559.9 321.4L567.9 320.0L575.9 319.1L583.9 318.6L592.0 318.3L600.0 318.1L608.1 317.9L616.1 317.6L624.3 317.3L632.5 316.8L640.8 316.5L649.1 316.3L657.5 316.4L665.8 317.0L674.1 318.1L682.2 320.0L690.2 322.5L697.8 325.8L705.2 329.7L712.4 334.1L719.2 339.0L725.8 344.1L732.3 349.2L738.8 354.2L745.4 359.0L752.1 363.4L759.1 367.3L766.4 371.0L774.1 374.2L782.1 377.3L790.3 380.4L798.7 383.6L807.0 387.0L815.0 391.0L822.7 395.6L829.8 400.9L836.1 407.0L841.5 413.8L846.0 421.3L849.5 429.4L852.1 438.0L853.8 446.9L854.9 456.0L855.5 465.2L855.7 474.3L855.8 483.2L855.9 491.9L856.1 500.3L856.4 508.5L857.0 516.5L857.7 524.3L858.5 532.0L859.4 539.7L860.0 547.3L860.4 554.9L860.5 562.5L860.2 570.1L859.4 577.7L858.3 585.2L856.9 592.7L855.2 600.0Z" fill="none" stroke="#14131A" stroke-opacity="0.10" stroke-width="1"></path><path d="M903.3 600.0L900.0 608.6L897.0 617.0L894.6 625.3L892.9 633.6L892.0 642.0L891.9 650.5L892.6 659.3L893.9 668.3L895.7 677.7L897.7 687.4L899.6 697.4L901.3 707.5L902.4 717.7L902.8 728.0L902.4 738.1L901.1 748.1L898.9 757.7L895.9 767.1L892.1 776.2L887.8 784.9L883.0 793.5L877.8 801.9L872.5 810.1L867.1 818.4L861.5 826.6L855.8 834.8L850.0 842.9L843.9 850.9L837.4 858.7L830.5 866.0L823.0 872.7L815.0 878.8L806.3 883.9L797.0 888.0L787.1 891.2L776.8 893.2L766.2 894.3L755.5 894.6L744.7 894.3L734.1 893.6L723.7 892.8L713.7 892.1L704.1 891.8L694.9 892.1L686.0 893.0L677.5 894.7L669.1 897.1L660.8 900.1L652.5 903.5L644.2 907.2L635.7 910.8L627.0 914.1L618.1 916.8L609.1 918.8L600.0 919.9L590.9 920.1L581.7 919.3L572.7 917.6L563.8 915.2L555.1 912.2L546.5 908.9L538.1 905.3L529.8 901.8L521.6 898.3L513.3 895.1L505.1 892.1L496.8 889.3L488.4 886.6L480.0 884.0L471.6 881.1L463.3 878.0L455.2 874.4L447.3 870.3L439.8 865.6L432.7 860.4L425.9 854.6L419.5 848.4L413.5 841.9L407.6 835.3L401.8 828.8L395.8 822.5L389.6 816.5L383.0 810.9L375.7 805.8L367.9 801.1L359.4 796.8L350.2 792.6L340.6 788.5L330.6 784.2L320.5 779.6L310.6 774.5L301.1 768.8L292.3 762.3L284.4 755.2L277.6 747.2L272.0 738.6L267.6 729.4L264.4 719.7L262.3 709.7L261.1 699.5L260.7 689.2L260.8 678.9L261.2 668.6L261.8 658.5L262.4 648.5L263.0 638.7L263.5 628.9L264.1 619.2L264.7 609.6L265.5 600.0L266.7 590.5L268.4 581.0L270.6 571.7L273.6 562.5L277.3 553.6L281.6 544.9L286.5 536.5L291.7 528.3L297.2 520.4L302.7 512.7L307.9 505.1L312.8 497.5L317.2 489.9L321.0 482.1L324.1 474.0L326.8 465.7L329.0 457.0L330.9 448.1L332.9 438.9L335.0 429.7L337.6 420.6L340.9 411.7L344.9 403.3L349.8 395.4L355.6 388.3L362.4 381.9L369.9 376.4L378.0 371.6L386.7 367.6L395.6 364.1L404.5 361.0L413.4 358.0L422.1 355.1L430.4 352.0L438.4 348.5L446.0 344.6L453.3 340.3L460.4 335.5L467.4 330.3L474.4 324.9L481.4 319.4L488.6 314.0L496.1 308.8L503.8 304.0L511.8 299.7L520.1 295.9L528.5 292.5L537.1 289.5L545.8 286.9L554.6 284.4L563.5 281.9L572.5 279.3L581.5 276.4L590.7 273.2L600.0 269.7L609.5 265.9L619.3 262.1L629.3 258.3L639.6 254.9L650.0 252.0L660.6 250.0L671.1 249.1L681.5 249.4L691.7 251.2L701.5 254.3L710.8 258.9L719.6 264.7L727.8 271.6L735.5 279.4L742.6 287.8L749.2 296.5L755.5 305.2L761.7 313.7L767.7 321.9L773.8 329.6L780.0 336.7L786.5 343.3L793.1 349.6L800.0 355.5L806.9 361.2L813.9 367.0L820.7 372.9L827.3 379.1L833.6 385.6L839.4 392.6L844.7 399.9L849.5 407.6L853.8 415.6L857.7 423.8L861.4 432.0L865.0 440.2L868.6 448.3L872.3 456.3L876.3 464.2L880.5 471.9L885.0 479.6L889.7 487.2L894.5 494.9L899.2 502.8L903.6 510.8L907.5 519.2L910.7 527.7L913.0 536.6L914.3 545.6L914.5 554.8L913.7 564.0L912.0 573.2L909.5 582.3L906.5 591.2L903.3 600.0Z" fill="none" stroke="#14131A" stroke-opacity="0.10" stroke-width="1"></path><path d="M973.6 600.0L972.6 610.6L971.6 621.2L970.7 631.8L969.9 642.4L969.2 653.1L968.6 663.8L968.0 674.6L967.1 685.4L965.9 696.2L964.1 706.9L961.6 717.5L958.3 727.8L954.1 737.9L949.1 747.5L943.4 756.8L937.1 765.7L930.4 774.3L923.5 782.7L916.7 791.0L910.0 799.2L903.7 807.7L897.8 816.4L892.3 825.4L887.2 834.9L882.4 844.7L877.6 854.8L872.7 865.1L867.5 875.3L861.8 885.2L855.3 894.6L847.9 903.2L839.7 910.8L830.5 917.2L820.4 922.4L809.6 926.2L798.2 928.7L786.4 930.1L774.4 930.6L762.4 930.3L750.5 929.5L738.9 928.6L727.6 927.7L716.7 927.1L706.2 926.9L696.0 927.1L686.2 927.8L676.5 928.9L666.9 930.2L657.4 931.7L647.9 933.1L638.3 934.2L628.8 935.0L619.2 935.3L609.6 935.2L600.0 934.6L590.5 933.7L581.0 932.6L571.5 931.5L562.1 930.6L552.5 930.1L542.9 930.0L533.0 930.6L522.9 931.7L512.4 933.4L501.5 935.4L490.3 937.7L478.8 939.8L467.0 941.6L455.2 942.7L443.4 942.9L431.9 941.9L420.8 939.7L410.2 936.0L400.4 931.1L391.2 924.9L382.9 917.5L375.2 909.4L368.2 900.6L361.7 891.4L355.5 882.2L349.4 873.1L343.2 864.3L336.8 855.8L330.1 847.8L322.9 840.1L315.4 832.7L307.6 825.4L299.7 818.2L291.6 810.9L283.8 803.2L276.3 795.2L269.3 786.7L263.0 777.8L257.5 768.4L252.8 758.6L248.7 748.4L245.4 738.1L242.5 727.5L240.0 717.0L237.7 706.4L235.5 695.8L233.1 685.3L230.6 674.8L228.0 664.4L225.3 653.9L222.7 643.3L220.4 632.6L218.6 621.8L217.6 610.9L217.6 600.0L218.8 589.1L221.3 578.3L225.1 567.8L230.3 557.6L236.7 547.8L244.0 538.4L252.1 529.5L260.5 521.1L269.0 513.0L277.2 505.2L284.8 497.6L291.7 490.0L297.7 482.3L302.6 474.3L306.6 466.0L309.8 457.3L312.3 448.2L314.3 438.7L316.2 428.9L318.2 418.9L320.5 408.9L323.2 398.9L326.6 389.2L330.6 379.7L335.3 370.7L340.7 362.0L346.5 353.7L352.8 345.6L359.3 337.8L366.0 330.0L372.8 322.2L379.6 314.2L386.5 306.1L393.3 297.7L400.3 289.3L407.5 280.7L415.0 272.3L422.8 264.3L431.2 256.7L440.1 250.0L449.6 244.2L459.6 239.5L470.1 236.0L481.0 233.7L492.1 232.6L503.4 232.4L514.7 233.1L525.9 234.2L536.9 235.5L547.8 236.7L558.4 237.6L568.9 237.9L579.3 237.6L589.6 236.4L600.0 234.6L610.5 232.1L621.2 229.3L632.1 226.4L643.2 223.7L654.4 221.5L665.8 220.0L677.1 219.5L688.3 220.2L699.3 222.1L710.0 225.3L720.3 229.7L730.2 235.0L739.7 241.2L748.7 248.0L757.4 255.3L765.9 262.7L774.1 270.1L782.2 277.4L790.1 284.7L798.1 291.8L805.9 298.9L813.6 306.0L821.1 313.3L828.2 320.9L834.9 328.9L841.0 337.4L846.5 346.3L851.3 355.8L855.3 365.7L858.7 375.8L861.6 386.1L864.1 396.4L866.4 406.4L868.9 416.1L871.7 425.4L875.1 434.1L879.4 442.2L884.5 449.9L890.6 457.1L897.6 464.1L905.5 470.9L913.9 477.8L922.7 484.8L931.6 492.3L940.2 500.1L948.2 508.5L955.4 517.4L961.5 526.7L966.5 536.6L970.1 546.8L972.6 557.2L974.0 567.9L974.5 578.6L974.3 589.3L973.6 600.0Z" fill="none" stroke="#14131A" stroke-opacity="0.10" stroke-width="1"></path><path d="M1022.3 600.0L1025.2 612.1L1028.3 624.5L1031.4 637.0L1034.3 649.8L1036.9 662.8L1038.8 675.9L1039.7 689.1L1039.4 702.2L1037.6 715.0L1034.3 727.5L1029.2 739.5L1022.4 750.7L1014.2 761.2L1004.5 771.0L993.9 779.9L982.5 788.1L970.8 795.7L959.1 802.8L947.7 809.6L936.8 816.4L926.6 823.3L917.3 830.5L908.7 838.1L900.9 846.0L893.6 854.4L886.6 863.1L879.8 871.9L872.9 880.8L865.7 889.5L858.1 897.9L850.0 905.8L841.4 913.0L832.2 919.5L822.5 925.4L812.5 930.7L802.3 935.4L791.9 939.8L781.5 944.0L771.2 948.3L761.1 952.7L751.0 957.3L741.1 962.3L731.1 967.5L721.2 972.9L711.1 978.3L700.8 983.4L690.2 988.1L679.4 992.0L668.4 995.0L657.1 996.9L645.6 997.5L634.1 997.0L622.6 995.3L611.2 992.7L600.0 989.4L589.0 985.7L578.2 981.9L567.5 978.4L556.9 975.5L546.3 973.4L535.6 972.3L524.6 972.2L513.2 973.1L501.5 974.8L489.3 977.1L476.6 979.7L463.6 982.2L450.3 984.4L436.9 985.8L423.6 986.3L410.4 985.6L397.6 983.7L385.2 980.4L373.4 975.8L362.1 970.1L351.4 963.5L341.3 956.1L331.6 948.1L322.2 939.7L313.1 931.2L304.1 922.4L295.2 913.6L286.4 904.7L277.8 895.7L269.5 886.4L261.6 876.7L254.2 866.6L247.6 856.0L242.0 844.8L237.4 833.0L234.0 820.7L231.8 807.9L230.7 794.9L230.5 781.7L231.2 768.4L232.2 755.4L233.5 742.7L234.6 730.4L235.2 718.5L235.1 707.1L234.1 696.2L232.1 685.5L229.2 675.1L225.4 664.8L221.0 654.5L216.2 644.0L211.3 633.4L206.8 622.5L202.9 611.3L199.9 600.0L198.0 588.5L197.5 577.0L198.2 565.5L200.2 554.1L203.4 543.0L207.4 532.1L212.1 521.4L217.1 511.0L222.3 500.7L227.4 490.6L232.2 480.5L236.6 470.3L240.7 460.1L244.5 449.8L248.1 439.3L251.7 428.7L255.4 418.2L259.6 407.7L264.2 397.5L269.4 387.5L275.3 378.0L281.8 368.8L288.9 360.1L296.5 351.8L304.3 343.8L312.3 335.9L320.1 328.0L327.7 319.8L335.0 311.3L341.9 302.1L348.4 292.3L354.5 281.7L360.6 270.4L366.6 258.6L372.8 246.4L379.4 234.2L386.6 222.2L394.6 210.7L403.4 200.2L413.2 191.0L423.8 183.2L435.3 177.0L447.5 172.5L460.2 169.8L473.3 168.5L486.6 168.6L500.0 169.8L513.2 171.8L526.3 174.2L539.2 176.9L551.8 179.5L564.1 181.9L576.2 184.1L588.2 186.1L600.0 187.8L611.7 189.5L623.4 191.3L634.9 193.5L646.3 196.2L657.6 199.5L668.6 203.5L679.4 208.2L689.9 213.6L700.0 219.5L709.9 225.8L719.5 232.2L729.0 238.5L738.4 244.5L747.9 250.0L757.6 254.9L767.6 259.1L778.0 262.7L788.7 265.8L799.8 268.6L811.2 271.3L822.7 274.3L834.2 277.7L845.3 281.9L856.0 286.9L866.0 293.1L875.0 300.3L883.1 308.7L890.1 318.1L896.0 328.3L901.0 339.2L905.3 350.4L909.0 361.8L912.4 373.1L915.7 384.1L919.4 394.7L923.5 404.9L928.3 414.6L933.7 423.9L939.9 432.9L946.7 441.7L954.0 450.4L961.5 459.2L969.1 468.3L976.6 477.7L983.6 487.4L990.0 497.5L995.7 508.0L1000.6 518.8L1004.8 529.9L1008.4 541.3L1011.5 552.8L1014.3 564.4L1016.9 576.2L1019.5 588.0L1022.3 600.0Z" fill="none" stroke="#14131A" stroke-opacity="0.10" stroke-width="1"></path><path d="M1047.6 600.0L1049.0 612.8L1051.2 625.8L1053.9 639.0L1056.8 652.4L1059.6 666.1L1061.9 679.9L1063.2 693.9L1063.4 707.8L1062.1 721.5L1059.2 734.8L1054.7 747.8L1048.7 760.1L1041.2 771.8L1032.6 782.8L1023.1 793.2L1013.1 803.1L1002.7 812.5L992.3 821.5L982.1 830.4L972.1 839.1L962.4 847.8L953.1 856.5L943.9 865.2L934.8 873.8L925.7 882.2L916.3 890.3L906.6 897.9L896.4 905.0L885.8 911.3L874.7 917.0L863.3 922.0L851.7 926.4L840.1 930.4L828.5 934.2L817.3 938.1L806.5 942.4L796.1 947.3L786.3 953.1L777.0 960.0L768.0 967.9L759.3 977.0L750.7 987.0L741.9 997.8L732.9 1009.0L723.4 1020.3L713.3 1031.2L702.6 1041.3L691.3 1050.3L679.2 1057.9L666.7 1063.9L653.7 1068.2L640.4 1070.7L627.0 1071.7L613.5 1071.3L600.0 1069.8L586.6 1067.6L573.4 1064.8L560.3 1061.9L547.3 1059.1L534.4 1056.4L521.4 1054.1L508.4 1052.0L495.4 1050.0L482.2 1048.1L469.1 1045.9L456.0 1043.2L443.0 1039.9L430.3 1035.8L417.9 1030.8L406.0 1024.9L394.5 1018.0L383.5 1010.3L372.9 1002.1L362.8 993.4L352.8 984.6L343.0 975.9L333.1 967.4L323.0 959.3L312.5 951.6L301.7 944.3L290.5 937.3L278.9 930.4L267.2 923.4L255.5 916.2L244.2 908.3L233.4 899.7L223.6 890.2L215.0 879.7L207.8 868.2L202.2 855.6L198.3 842.3L195.9 828.2L195.0 813.7L195.3 799.0L196.6 784.2L198.4 769.7L200.4 755.6L202.3 741.9L203.7 728.8L204.5 716.1L204.4 704.0L203.6 692.2L201.9 680.7L199.7 669.3L196.9 658.0L194.0 646.6L191.2 635.1L188.7 623.5L186.6 611.8L185.0 600.0L184.1 588.1L183.8 576.2L183.9 564.3L184.3 552.3L184.8 540.3L185.2 528.2L185.2 516.0L184.9 503.5L184.0 490.7L182.7 477.5L181.1 463.9L179.4 449.9L177.8 435.6L176.6 421.1L176.2 406.4L176.8 391.9L178.8 377.8L182.4 364.2L187.6 351.3L194.4 339.3L202.7 328.3L212.4 318.4L223.2 309.5L234.8 301.4L246.9 294.0L259.1 287.1L271.1 280.4L282.9 273.7L294.1 266.7L304.7 259.2L314.8 251.2L324.4 242.6L333.8 233.6L343.0 224.1L352.2 214.4L361.7 204.8L371.6 195.6L382.0 186.9L393.0 179.1L404.6 172.2L416.7 166.4L429.3 161.6L442.3 157.9L455.4 155.1L468.7 152.9L482.0 151.3L495.3 149.9L508.5 148.5L521.6 147.2L534.7 145.7L547.7 144.2L560.7 142.7L573.8 141.4L586.9 140.5L600.0 140.4L613.1 141.2L626.1 143.1L639.0 146.5L651.5 151.3L663.6 157.5L675.3 165.0L686.4 173.7L696.9 183.1L707.0 193.0L716.6 202.9L725.9 212.6L735.1 221.5L744.3 229.4L753.7 236.2L763.6 241.7L774.0 246.1L785.1 249.3L796.8 251.6L809.1 253.3L821.8 254.8L835.0 256.3L848.3 258.3L861.5 260.9L874.5 264.3L887.0 268.8L899.0 274.3L910.3 280.7L921.0 288.1L931.1 296.1L940.7 304.8L949.9 313.9L958.9 323.2L967.9 332.7L976.9 342.3L986.0 351.9L995.3 361.6L1004.5 371.5L1013.7 381.7L1022.6 392.2L1030.9 403.2L1038.4 414.7L1044.9 426.8L1050.1 439.4L1054.0 452.5L1056.5 466.0L1057.6 479.7L1057.5 493.6L1056.4 507.5L1054.7 521.3L1052.5 534.9L1050.4 548.3L1048.6 561.5L1047.4 574.4L1047.1 587.2L1047.6 600.0Z" fill="none" stroke="#14131A" stroke-opacity="0.10" stroke-width="1"></path><path d="M1086.0 600.0L1083.0 613.8L1080.5 627.5L1078.2 641.1L1075.8 654.6L1073.2 668.0L1070.1 681.3L1066.3 694.5L1061.7 707.4L1056.3 720.0L1050.3 732.2L1043.7 744.2L1036.8 755.8L1029.7 767.3L1022.9 778.7L1016.3 790.1L1010.3 801.7L1004.9 813.7L1000.1 826.0L995.9 838.7L992.0 851.9L988.2 865.4L984.2 879.2L979.8 892.8L974.6 906.3L968.3 919.1L960.9 931.2L952.2 942.3L942.2 952.1L931.0 960.6L918.8 967.9L905.8 974.0L892.3 979.0L878.5 983.3L864.8 987.3L851.4 991.1L838.4 995.3L825.9 1000.0L814.0 1005.6L802.6 1012.1L791.6 1019.6L780.9 1028.1L770.2 1037.3L759.5 1047.0L748.4 1056.9L737.0 1066.6L725.1 1075.9L712.7 1084.5L699.7 1092.1L686.3 1098.6L672.5 1104.0L658.3 1108.3L643.9 1111.6L629.4 1114.1L614.7 1116.1L600.0 1117.7L585.2 1119.2L570.2 1120.5L555.2 1121.9L540.0 1123.2L524.6 1124.4L509.1 1125.1L493.6 1125.1L478.1 1124.2L462.8 1122.1L447.8 1118.4L433.3 1112.9L419.6 1105.7L406.6 1096.6L394.7 1085.9L383.7 1073.6L373.7 1060.2L364.7 1046.0L356.3 1031.5L348.6 1016.9L341.1 1002.8L333.7 989.4L326.1 977.0L318.1 965.6L309.5 955.3L300.2 946.0L290.3 937.5L279.8 929.5L268.8 921.9L257.6 914.2L246.5 906.3L235.7 897.9L225.4 888.8L215.9 879.0L207.3 868.5L199.6 857.3L192.9 845.5L186.9 833.3L181.6 820.7L176.8 808.1L172.2 795.4L167.6 782.7L162.8 770.2L157.7 757.8L152.4 745.4L146.7 733.1L141.0 720.7L135.4 708.0L130.1 695.2L125.5 682.1L121.7 668.8L119.1 655.2L117.8 641.4L117.8 627.6L119.1 613.7L121.6 600.0L124.9 586.4L128.8 573.1L132.9 559.9L136.8 546.9L140.2 533.9L142.7 520.9L144.2 507.6L144.5 494.1L143.8 480.1L142.1 465.5L139.7 450.4L136.9 434.8L134.2 418.7L132.0 402.2L130.7 385.7L130.6 369.2L132.0 353.1L135.1 337.5L139.9 322.6L146.5 308.5L154.6 295.4L164.1 283.3L174.7 272.0L186.1 261.6L198.1 251.7L210.3 242.4L222.7 233.4L235.1 224.6L247.5 215.9L259.8 207.4L272.2 199.1L284.7 191.1L297.5 183.6L310.6 176.7L324.1 170.7L338.2 165.8L352.7 162.0L367.6 159.5L382.7 158.1L398.0 157.8L413.4 158.3L428.5 159.4L443.3 160.8L457.7 161.9L471.6 162.6L485.0 162.5L498.0 161.3L510.6 158.9L523.1 155.4L535.4 150.8L547.8 145.3L560.4 139.3L573.3 133.2L586.5 127.3L600.0 122.2L613.8 118.1L627.7 115.5L641.7 114.4L655.6 115.0L669.4 117.3L682.9 121.2L696.0 126.3L708.7 132.3L721.2 139.0L733.3 146.0L745.3 152.9L757.2 159.6L769.1 165.7L781.2 171.3L793.5 176.4L806.0 181.1L818.7 185.5L831.6 189.9L844.6 194.4L857.4 199.5L870.0 205.1L882.3 211.4L894.2 218.5L905.5 226.4L916.3 235.0L926.7 244.0L936.8 253.4L946.8 262.9L956.9 272.4L967.3 281.7L978.2 290.8L989.7 299.5L1001.8 308.1L1014.7 316.5L1028.1 324.9L1041.8 333.6L1055.6 342.7L1069.0 352.5L1081.7 363.2L1093.2 374.8L1103.2 387.3L1111.4 400.9L1117.5 415.3L1121.5 430.6L1123.3 446.3L1123.2 462.5L1121.2 478.8L1117.9 495.1L1113.5 511.1L1108.6 526.9L1103.4 542.2L1098.3 557.2L1093.7 571.8L1089.5 586.0L1086.0 600.0Z" fill="none" stroke="#14131A" stroke-opacity="0.10" stroke-width="1"></path><path d="M1132.6 600.0L1131.8 615.2L1130.2 630.3L1127.5 645.3L1123.5 660.1L1118.2 674.5L1111.4 688.5L1103.3 702.0L1094.0 714.9L1083.8 727.2L1073.1 738.9L1062.3 750.2L1051.8 761.2L1042.1 772.1L1033.5 783.2L1026.2 794.6L1020.3 806.6L1015.8 819.4L1012.6 833.0L1010.5 847.5L1009.1 862.9L1007.9 878.9L1006.7 895.5L1005.0 912.3L1002.4 929.0L998.6 945.4L993.6 961.2L987.1 976.2L979.2 990.2L970.0 1003.1L959.7 1015.1L948.4 1026.1L936.5 1036.4L924.1 1046.1L911.5 1055.5L898.6 1064.7L885.8 1073.9L872.8 1083.1L859.8 1092.3L846.6 1101.5L833.1 1110.5L819.3 1119.0L805.1 1126.8L790.4 1133.6L775.2 1139.2L759.5 1143.3L743.5 1145.9L727.2 1147.0L710.8 1146.7L694.3 1145.1L678.0 1142.7L661.9 1139.8L646.1 1136.7L630.5 1133.8L615.2 1131.6L600.0 1130.2L584.9 1129.8L569.7 1130.4L554.3 1132.0L538.7 1134.2L522.8 1136.7L506.7 1139.2L490.4 1141.1L473.9 1142.1L457.6 1141.7L441.5 1139.7L425.9 1135.7L411.0 1129.8L396.8 1121.9L383.5 1112.3L371.1 1101.2L359.6 1089.0L348.8 1076.0L338.8 1062.6L329.1 1049.2L319.8 1036.0L310.6 1023.3L301.3 1011.1L291.9 999.6L282.3 988.5L272.6 977.9L262.8 967.4L253.1 957.0L243.6 946.4L234.5 935.4L226.0 924.1L218.1 912.3L210.8 900.1L204.2 887.6L198.1 874.8L192.2 862.1L186.3 849.5L180.2 837.1L173.5 825.1L165.9 813.4L157.3 802.2L147.5 791.2L136.5 780.4L124.6 769.6L111.8 758.6L98.6 747.2L85.4 735.3L72.6 722.6L60.8 709.3L50.3 695.1L41.7 680.3L35.1 664.8L30.7 648.9L28.6 632.7L28.5 616.3L30.3 600.0L33.6 583.8L38.0 567.9L43.2 552.2L48.6 536.7L54.0 521.5L59.1 506.4L63.7 491.3L67.8 476.2L71.5 461.1L75.0 445.8L78.3 430.5L82.0 415.2L86.1 399.9L90.9 384.9L96.7 370.2L103.6 355.9L111.5 342.2L120.4 329.2L130.2 316.7L140.5 304.7L151.3 293.2L162.2 281.9L173.1 270.8L183.7 259.6L193.9 248.1L203.7 236.3L213.2 224.1L222.5 211.6L231.9 198.9L241.5 186.2L251.6 173.9L262.4 162.2L274.1 151.5L286.9 142.1L300.7 134.3L315.5 128.3L331.3 124.2L347.8 122.0L364.7 121.4L381.9 122.4L399.0 124.4L415.9 127.1L432.3 130.0L448.2 132.7L463.4 134.7L478.0 135.8L492.0 135.7L505.6 134.4L519.0 131.8L532.2 128.2L545.4 123.8L558.7 118.9L572.2 113.8L586.0 108.9L600.0 104.5L614.3 100.9L628.7 98.0L643.3 96.1L657.9 95.0L672.7 94.6L687.4 94.7L702.3 95.1L717.3 95.5L732.5 95.9L748.0 96.0L763.8 95.8L780.0 95.4L796.6 95.0L813.5 94.7L830.6 95.0L847.8 96.0L864.8 98.2L881.3 101.9L897.2 107.2L912.1 114.3L926.0 123.3L938.6 134.0L949.8 146.3L959.9 159.9L968.8 174.4L976.8 189.5L984.1 204.8L991.1 219.9L998.1 234.6L1005.4 248.7L1013.2 262.1L1021.8 274.8L1031.1 286.8L1041.2 298.3L1052.0 309.5L1063.1 320.8L1074.2 332.2L1085.2 344.0L1095.5 356.4L1104.8 369.4L1113.0 383.2L1119.9 397.6L1125.2 412.6L1129.2 428.1L1131.8 443.9L1133.3 459.8L1134.0 475.8L1134.1 491.8L1133.8 507.6L1133.5 523.3L1133.3 538.8L1133.1 554.2L1133.1 569.5L1133.0 584.8L1132.6 600.0Z" fill="none" stroke="#14131A" stroke-opacity="0.10" stroke-width="1"></path><path d="M1153.5 600.0L1159.8 616.0L1164.9 632.3L1168.4 648.8L1169.9 665.4L1169.4 681.9L1166.8 698.1L1162.3 713.9L1156.1 729.3L1148.5 744.2L1140.1 758.6L1131.2 772.6L1122.2 786.3L1113.5 799.9L1105.4 813.6L1098.1 827.5L1091.5 841.6L1085.6 856.2L1080.2 871.2L1075.0 886.5L1069.9 902.0L1064.5 917.6L1058.5 933.1L1051.7 948.3L1044.0 963.1L1035.4 977.3L1025.8 990.8L1015.5 1003.8L1004.5 1016.2L993.1 1028.3L981.4 1040.1L969.6 1052.1L958.0 1064.2L946.4 1076.8L935.1 1090.0L923.7 1103.7L912.3 1117.9L900.6 1132.3L888.5 1146.7L875.7 1160.7L862.0 1173.8L847.5 1185.6L831.9 1195.6L815.3 1203.5L797.9 1209.1L779.7 1212.1L761.0 1212.5L742.0 1210.6L722.9 1206.5L704.0 1200.8L685.4 1193.8L667.2 1186.1L649.7 1178.2L632.6 1170.6L616.1 1163.6L600.0 1157.5L584.2 1152.4L568.6 1148.4L553.2 1145.2L537.7 1142.7L522.3 1140.6L506.8 1138.5L491.4 1136.0L476.0 1133.0L460.9 1129.3L446.0 1124.6L431.4 1119.0L417.1 1112.6L403.2 1105.5L389.5 1098.0L376.0 1090.4L362.6 1082.9L349.0 1075.7L335.2 1069.0L320.9 1062.8L306.3 1057.0L291.1 1051.7L275.6 1046.5L259.8 1041.1L244.0 1035.3L228.5 1028.8L213.4 1021.2L199.3 1012.3L186.2 1002.1L174.6 990.5L164.4 977.5L155.7 963.3L148.4 948.2L142.4 932.5L137.3 916.4L132.7 900.3L128.3 884.4L123.6 869.0L118.3 854.2L112.0 839.9L104.5 826.3L95.8 813.1L85.9 800.2L74.9 787.3L63.3 774.4L51.2 761.1L39.3 747.4L27.8 733.1L17.2 718.1L7.9 702.5L0.1 686.3L-6.1 669.5L-10.7 652.5L-13.8 635.1L-15.5 617.6L-16.1 600.0L-15.9 582.4L-15.1 564.8L-14.0 547.3L-12.7 529.7L-11.2 512.1L-9.6 494.5L-7.6 476.9L-5.0 459.3L-1.5 441.9L3.0 424.7L9.0 408.0L16.7 391.9L26.1 376.6L37.4 362.2L50.4 349.0L64.9 336.9L80.7 326.0L97.3 316.1L114.3 307.1L131.2 298.7L147.6 290.7L163.1 282.6L177.5 274.2L190.6 265.3L202.4 255.5L213.0 244.8L222.5 233.1L231.3 220.6L239.6 207.3L247.9 193.6L256.4 179.8L265.5 166.2L275.4 153.2L286.2 141.1L298.0 130.1L310.8 120.4L324.4 111.9L338.6 104.7L353.4 98.5L368.5 93.1L383.7 88.3L399.0 83.7L414.1 79.1L429.2 74.3L444.1 69.1L459.0 63.6L473.9 57.9L489.0 52.0L504.2 46.4L519.7 41.2L535.4 36.7L551.3 33.3L567.5 31.2L583.7 30.4L600.0 31.1L616.2 33.1L632.2 36.2L648.1 40.0L663.8 44.3L679.3 48.6L694.8 52.5L710.3 55.6L726.1 57.7L742.3 58.7L759.0 58.6L776.3 57.5L794.2 55.6L812.8 53.3L831.9 51.2L851.4 49.6L870.9 49.0L890.3 49.9L909.1 52.6L927.2 57.3L944.3 64.3L960.2 73.3L974.7 84.3L987.8 97.1L999.6 111.3L1010.3 126.5L1019.9 142.5L1028.8 158.8L1037.1 175.2L1045.2 191.4L1053.0 207.4L1060.8 223.2L1068.6 238.6L1076.3 254.0L1083.7 269.3L1090.7 284.7L1097.0 300.3L1102.5 316.2L1106.9 332.5L1110.2 349.1L1112.4 366.0L1113.4 383.0L1113.5 400.1L1112.9 417.0L1112.1 433.6L1111.3 449.9L1111.0 465.7L1111.4 481.1L1113.0 496.0L1115.9 510.7L1120.1 525.2L1125.5 539.7L1131.9 554.3L1139.0 569.2L1146.4 584.4L1153.5 600.0Z" fill="none" stroke="#14131A" stroke-opacity="0.10" stroke-width="1"></path></svg>