<svg xmlns="http://www.w3.org/2000/svg" viewBox="0 0 900 600" width="900" height="600"><circle cx="9.4" cy="519.6" r="0.40" fill="#EDE6D6" opacity="0.21"></circle><circle cx="278.8" cy="449.1" r="0.66" fill="#EDE6D6" opacity="0.34"></circle><circle cx="197.4" cy="410.6" r="0.60" fill="#EDE6D6" opacity="0.29"></circle><circle cx="0.6" cy="133.7" r="0.49" fill="#EDE6D6" opacity="0.21"></circle><circle cx="294.1" cy="175.5" r="0.55" fill="#EDE6D6" opacity="0.26"></circle><circle cx="160.9" cy="129.1" r="0.48" fill="#EDE6D6" opacity="0.45"></circle><circle cx="292.6" cy="302.3" r="0.68" fill="#EDE6D6" opacity="0.24"></circle><circle cx="172.0" cy="295.1" r="0.34" fill="#EDE6D6" opacity="0.17"></circle><circle cx="809.7" cy="276.0" r="0.36" fill="#EDE6D6" opacity="0.40"></circle><circle cx="754.0" cy="192.5" r="0.31" fill="#EDE6D6" opacity="0.29"></circle><circle cx="261.9" cy="401.8" r="0.38" fill="#EDE6D6" opacity="0.22"></circle><circle cx="72.3" cy="108.6" r="0.50" fill="#EDE6D6" opacity="0.41"></circle><circle cx="551.9" cy="289.2" r="0.62" fill="#EDE6D6" opacity="0.37"></circle><circle cx="814.0" cy="330.3" r="0.43" fill="#EDE6D6" opacity="0.34"></circle><circle cx="426.4" cy="99.9" r="0.54" fill="#EDE6D6" opacity="0.44"></circle><circle cx="469.1" cy="328.3" r="0.41" fill="#EDE6D6" opacity="0.31"></circle><circle cx="126.5" cy="268.1" r="0.63" fill="#EDE6D6" opacity="0.24"></circle><circle cx="144.7" cy="361.5" r="0.48" fill="#EDE6D6" opacity="0.33"></circle><circle cx="412.5" cy="464.4" r="0.41" fill="#EDE6D6" opacity="0.44"></circle><circle cx="81.2" cy="577.4" r="0.36" fill="#EDE6D6" opacity="0.38"></circle><circle cx="712.6" cy="368.1" r="0.39" fill="#EDE6D6" opacity="0.29"></circle><circle cx="761.8" cy="419.7" r="0.43" fill="#EDE6D6" opacity="0.41"></circle><circle cx="247.7" cy="12.6" r="0.61" fill="#EDE6D6" opacity="0.32"></circle><circle cx="276.6" cy="148.2" r="0.43" fill="#EDE6D6" opacity="0.17"></circle><circle cx="856.8" cy="59.8" r="0.33" fill="#EDE6D6" opacity="0.26"></circle><circle cx="337.9" cy="363.3" r="0.30" fill="#EDE6D6" opacity="0.28"></circle><circle cx="471.2" cy="181.5" r="0.63" fill="#EDE6D6" opacity="0.21"></circle><circle cx="503.5" cy="280.8" r="0.43" fill="#EDE6D6" opacity="0.29"></circle><circle cx="430.7" cy="549.6" r="0.47" fill="#EDE6D6" opacity="0.39"></circle><circle cx="548.3" cy="269.3" r="0.53" fill="#EDE6D6" opacity="0.26"></circle><circle cx="588.7" cy="74.6" r="0.30" fill="#EDE6D6" opacity="0.42"></circle><circle cx="840.2" cy="17.3" r="0.69" fill="#EDE6D6" opacity="0.38"></circle><circle cx="772.0" cy="330.2" r="0.66" fill="#EDE6D6" opacity="0.39"></circle><circle cx="898.2" cy="575.9" r="0.63" fill="#EDE6D6" opacity="0.27"></circle><circle cx="138.4" cy="151.0" r="0.33" fill="#EDE6D6" opacity="0.31"></circle><circle cx="877.7" cy="229.0" r="0.53" fill="#EDE6D6" opacity="0.17"></circle><circle cx="611.0" cy="312.6" r="0.55" fill="#EDE6D6" opacity="0.23"></circle><circle cx="83.7" cy="86.4" r="0.46" fill="#EDE6D6" opacity="0.45"></circle><circle cx="452.9" cy="45.2" r="0.63" fill="#EDE6D6" opacity="0.25"></circle><circle cx="372.7" cy="435.8" r="0.35" fill="#EDE6D6" opacity="0.36"></circle><circle cx="328.0" cy="593.6" r="0.51" fill="#EDE6D6" opacity="0.37"></circle><circle cx="843.9" cy="322.5" r="0.39" fill="#EDE6D6" opacity="0.41"></circle><circle cx="710.8" cy="353.1" r="0.46" fill="#EDE6D6" opacity="0.18"></circle><circle cx="212.5" cy="515.7" r="0.30" fill="#EDE6D6" opacity="0.29"></circle><circle cx="303.9" cy="384.7" r="0.33" fill="#EDE6D6" opacity="0.37"></circle><circle cx="282.4" cy="435.2" r="0.52" fill="#EDE6D6" opacity="0.34"></circle><circle cx="225.7" cy="472.3" r="0.55" fill="#EDE6D6" opacity="0.22"></circle><circle cx="376.1" cy="581.8" r="0.33" fill="#EDE6D6" opacity="0.29"></circle><circle cx="653.8" cy="47.8" r="0.53" fill="#EDE6D6" opacity="0.16"></circle><circle cx="880.5" cy="583.0" r="0.45" fill="#EDE6D6" opacity="0.34"></circle><circle cx="150.7" cy="510.2" r="0.63" fill="#EDE6D6" opacity="0.17"></circle><circle cx="132.8" cy="489.5" r="0.52" fill="#EDE6D6" opacity="0.39"></circle><circle cx="262.0" cy="333.6" r="0.33" fill="#EDE6D6" opacity="0.44"></circle><circle cx="298.5" cy="403.6" r="0.38" fill="#EDE6D6" opacity="0.39"></circle><circle cx="506.8" cy="382.8" r="0.57" fill="#EDE6D6" opacity="0.31"></circle><circle cx="561.2" cy="544.9" r="0.48" fill="#EDE6D6" opacity="0.20"></circle><circle cx="761.1" cy="430.2" r="0.57" fill="#EDE6D6" opacity="0.42"></circle><circle cx="724.2" cy="323.7" r="0.57" fill="#EDE6D6" opacity="0.44"></circle><circle cx="233.0" cy="62.2" r="0.35" fill="#EDE6D6" opacity="0.38"></circle><circle cx="149.6" cy="200.0" r="0.35" fill="#EDE6D6" opacity="0.18"></circle><circle cx="513.9" cy="547.8" r="0.34" fill="#EDE6D6" opacity="0.30"></circle><circle cx="194.7" cy="480.5" r="0.63" fill="#EDE6D6" opacity="0.26"></circle><circle cx="866.5" cy="36.3" r="0.62" fill="#EDE6D6" opacity="0.20"></circle><circle cx="874.5" cy="268.1" r="0.60" fill="#EDE6D6" opacity="0.30"></circle><circle cx="445.3" cy="546.8" r="0.47" fill="#EDE6D6" opacity="0.24"></circle><circle cx="744.2" cy="589.5" r="0.46" fill="#EDE6D6" opacity="0.23"></circle><circle cx="427.0" cy="442.5" r="0.67" fill="#EDE6D6" opacity="0.30"></circle><circle cx="340.5" cy="514.0" r="0.31" fill="#EDE6D6" opacity="0.41"></circle><circle cx="210.8" cy="564.1" r="0.47" fill="#EDE6D6" opacity="0.38"></circle><circle cx="602.6" cy="16.7" r="0.63" fill="#EDE6D6" opacity="0.22"></circle></svg>