<svg xmlns="http://www.w3.org/2000/svg" viewBox="0 0 900 600" width="900" height="600"><circle cx="0.3" cy="314.8" r="1.01" fill="#EDE6D6" opacity="0.46"></circle><circle cx="338.6" cy="117.8" r="1.18" fill="#EDE6D6" opacity="0.61"></circle><circle cx="477.4" cy="154.3" r="0.57" fill="#EDE6D6" opacity="0.79"></circle><circle cx="810.5" cy="271.2" r="0.67" fill="#EDE6D6" opacity="0.45"></circle><circle cx="169.4" cy="194.0" r="0.57" fill="#EDE6D6" opacity="0.78"></circle><circle cx="481.0" cy="506.7" r="1.02" fill="#EDE6D6" opacity="0.35"></circle><circle cx="485.1" cy="78.6" r="1.10" fill="#EDE6D6" opacity="0.58"></circle><circle cx="424.8" cy="270.0" r="0.66" fill="#EDE6D6" opacity="0.31"></circle><circle cx="20.7" cy="596.1" r="1.14" fill="#EDE6D6" opacity="0.77"></circle><circle cx="513.7" cy="461.5" r="0.94" fill="#EDE6D6" opacity="0.51"></circle><circle cx="338.1" cy="160.3" r="0.75" fill="#EDE6D6" opacity="0.68"></circle><circle cx="327.4" cy="31.7" r="0.87" fill="#EDE6D6" opacity="0.39"></circle><circle cx="408.4" cy="197.6" r="0.63" fill="#EDE6D6" opacity="0.34"></circle><circle cx="887.9" cy="327.7" r="0.56" fill="#EDE6D6" opacity="0.90"></circle><circle cx="390.4" cy="420.9" r="0.63" fill="#EDE6D6" opacity="0.63"></circle><circle cx="895.9" cy="114.0" r="0.98" fill="#EDE6D6" opacity="0.54"></circle><circle cx="395.1" cy="448.2" r="0.62" fill="#EDE6D6" opacity="0.79"></circle><circle cx="725.5" cy="58.5" r="0.52" fill="#EDE6D6" opacity="0.38"></circle><circle cx="573.7" cy="228.2" r="0.67" fill="#EDE6D6" opacity="0.60"></circle><circle cx="469.0" cy="62.1" r="1.19" fill="#EDE6D6" opacity="0.51"></circle><circle cx="691.5" cy="159.2" r="0.97" fill="#EDE6D6" opacity="0.85"></circle><circle cx="419.7" cy="264.5" r="1.15" fill="#EDE6D6" opacity="0.58"></circle><circle cx="879.5" cy="192.0" r="1.06" fill="#EDE6D6" opacity="0.82"></circle><circle cx="668.4" cy="334.5" r="1.08" fill="#EDE6D6" opacity="0.62"></circle><circle cx="276.7" cy="206.1" r="0.72" fill="#EDE6D6" opacity="0.57"></circle><circle cx="510.1" cy="391.5" r="0.54" fill="#EDE6D6" opacity="0.59"></circle><circle cx="410.6" cy="5.7" r="0.99" fill="#EDE6D6" opacity="0.53"></circle><circle cx="402.2" cy="561.7" r="0.59" fill="#EDE6D6" opacity="0.56"></circle><circle cx="263.3" cy="246.6" r="0.67" fill="#EDE6D6" opacity="0.52"></circle><circle cx="639.2" cy="561.3" r="0.51" fill="#EDE6D6" opacity="0.59"></circle><circle cx="739.4" cy="319.6" r="0.59" fill="#EDE6D6" opacity="0.54"></circle><circle cx="115.9" cy="487.5" r="0.77" fill="#EDE6D6" opacity="0.35"></circle><circle cx="537.9" cy="202.0" r="0.68" fill="#EDE6D6" opacity="0.53"></circle><circle cx="282.7" cy="369.9" r="0.64" fill="#EDE6D6" opacity="0.47"></circle><circle cx="890.2" cy="117.8" r="0.96" fill="#EDE6D6" opacity="0.61"></circle><circle cx="706.1" cy="76.3" r="0.75" fill="#EDE6D6" opacity="0.43"></circle><circle cx="268.9" cy="100.9" r="1.17" fill="#EDE6D6" opacity="0.74"></circle><circle cx="530.4" cy="310.6" r="0.84" fill="#EDE6D6" opacity="0.52"></circle><circle cx="264.0" cy="233.9" r="0.79" fill="#EDE6D6" opacity="0.56"></circle><circle cx="289.7" cy="211.6" r="0.58" fill="#EDE6D6" opacity="0.74"></circle><circle cx="368.4" cy="6.1" r="0.75" fill="#EDE6D6" opacity="0.62"></circle><circle cx="172.6" cy="522.2" r="1.14" fill="#EDE6D6" opacity="0.88"></circle><circle cx="715.0" cy="139.9" r="0.86" fill="#EDE6D6" opacity="0.42"></circle><circle cx="784.2" cy="487.4" r="1.19" fill="#EDE6D6" opacity="0.51"></circle><circle cx="565.6" cy="404.8" r="1.12" fill="#EDE6D6" opacity="0.37"></circle><circle cx="612.0" cy="598.0" r="1.18" fill="#EDE6D6" opacity="0.38"></circle><circle cx="332.2" cy="24.3" r="0.88" fill="#EDE6D6" opacity="0.40"></circle><circle cx="454.7" cy="93.7" r="1.06" fill="#EDE6D6" opacity="0.45"></circle><circle cx="194.9" cy="202.5" r="1.02" fill="#EDE6D6" opacity="0.55"></circle><circle cx="861.7" cy="345.0" r="0.82" fill="#EDE6D6" opacity="0.68"></circle><circle cx="843.5" cy="295.6" r="0.82" fill="#EDE6D6" opacity="0.35"></circle><circle cx="678.0" cy="90.8" r="0.90" fill="#EDE6D6" opacity="0.66"></circle><circle cx="309.8" cy="233.5" r="0.66" fill="#EDE6D6" opacity="0.79"></circle><circle cx="433.5" cy="389.6" r="0.86" fill="#EDE6D6" opacity="0.33"></circle><circle cx="567.2" cy="404.7" r="0.61" fill="#EDE6D6" opacity="0.78"></circle><circle cx="192.0" cy="29.7" r="0.82" fill="#EDE6D6" opacity="0.74"></circle><circle cx="867.4" cy="321.4" r="0.53" fill="#EDE6D6" opacity="0.69"></circle><circle cx="343.2" cy="299.2" r="0.76" fill="#EDE6D6" opacity="0.53"></circle><circle cx="761.2" cy="507.7" r="1.14" fill="#EDE6D6" opacity="0.63"></circle><circle cx="47.1" cy="439.8" r="0.68" fill="#EDE6D6" opacity="0.67"></circle><circle cx="20.9" cy="281.1" r="0.95" fill="#EDE6D6" opacity="0.83"></circle><circle cx="303.0" cy="530.3" r="1.17" fill="#EDE6D6" opacity="0.57"></circle><circle cx="432.5" cy="532.0" r="0.52" fill="#EDE6D6" opacity="0.32"></circle><circle cx="432.7" cy="328.8" r="0.78" fill="#EDE6D6" opacity="0.63"></circle><circle cx="598.3" cy="350.2" r="0.93" fill="#EDE6D6" opacity="0.38"></circle><circle cx="697.2" cy="483.4" r="1.18" fill="#EDE6D6" opacity="0.56"></circle><circle cx="79.4" cy="265.2" r="1.19" fill="#EDE6D6" opacity="0.88"></circle><circle cx="364.1" cy="198.3" r="1.19" fill="#EDE6D6" opacity="0.78"></circle><circle cx="336.5" cy="184.2" r="0.55" fill="#EDE6D6" opacity="0.86"></circle><circle cx="565.5" cy="553.4" r="1.02" fill="#EDE6D6" opacity="0.81"></circle><circle cx="132.0" cy="285.2" r="0.54" fill="#EDE6D6" opacity="0.48"></circle><circle cx="225.3" cy="257.1" r="1.01" fill="#EDE6D6" opacity="0.73"></circle><circle cx="218.2" cy="257.4" r="1.05" fill="#EDE6D6" opacity="0.67"></circle><circle cx="444.0" cy="480.7" r="1.07" fill="#EDE6D6" opacity="0.46"></circle><circle cx="193.7" cy="394.9" r="0.66" fill="#EDE6D6" opacity="0.53"></circle><circle cx="218.0" cy="374.1" r="0.58" fill="#EDE6D6" opacity="0.66"></circle><circle cx="333.5" cy="75.1" r="0.87" fill="#EDE6D6" opacity="0.53"></circle><circle cx="353.7" cy="559.4" r="0.52" fill="#EDE6D6" opacity="0.36"></circle><circle cx="237.8" cy="417.3" r="1.09" fill="#EDE6D6" opacity="0.62"></circle><circle cx="7.1" cy="474.5" r="0.77" fill="#EDE6D6" opacity="0.38"></circle><circle cx="141.4" cy="232.3" r="0.53" fill="#EDE6D6" opacity="0.46"></circle><circle cx="615.6" cy="119.4" r="0.54" fill="#EDE6D6" opacity="0.72"></circle><circle cx="683.6" cy="57.4" r="1.11" fill="#EDE6D6" opacity="0.63"></circle><circle cx="456.1" cy="461.0" r="1.19" fill="#EDE6D6" opacity="0.47"></circle><circle cx="657.3" cy="172.2" r="0.87" fill="#EDE6D6" opacity="0.70"></circle><circle cx="193.4" cy="241.2" r="0.91" fill="#EDE6D6" opacity="0.66"></circle><circle cx="245.0" cy="407.8" r="0.74" fill="#EDE6D6" opacity="0.59"></circle><circle cx="455.0" cy="202.9" r="1.00" fill="#EDE6D6" opacity="0.77"></circle><circle cx="789.3" cy="262.1" r="0.80" fill="#EDE6D6" opacity="0.49"></circle><circle cx="129.7" cy="264.2" r="1.03" fill="#EDE6D6" opacity="0.87"></circle><circle cx="745.2" cy="376.8" r="0.86" fill="#EDE6D6" opacity="0.30"></circle><circle cx="844.0" cy="329.8" r="0.64" fill="#EDE6D6" opacity="0.75"></circle><circle cx="326.5" cy="268.2" r="0.60" fill="#EDE6D6" opacity="0.38"></circle><circle cx="286.4" cy="556.5" r="1.03" fill="#EDE6D6" opacity="0.72"></circle><circle cx="655.8" cy="203.3" r="0.82" fill="#EDE6D6" opacity="0.64"></circle><circle cx="579.9" cy="131.1" r="1.02" fill="#EDE6D6" opacity="0.70"></circle><circle cx="170.6" cy="107.2" r="1.07" fill="#EDE6D6" opacity="0.51"></circle><circle cx="764.5" cy="563.2" r="1.12" fill="#EDE6D6" opacity="0.52"></circle><circle cx="296.9" cy="159.8" r="0.89" fill="#EDE6D6" opacity="0.77"></circle><circle cx="726.9" cy="509.4" r="0.76" fill="#EDE6D6" opacity="0.34"></circle><circle cx="182.1" cy="196.9" r="0.98" fill="#EDE6D6" opacity="0.77"></circle><circle cx="561.4" cy="463.3" r="0.69" fill="#EDE6D6" opacity="0.67"></circle><circle cx="734.6" cy="16.3" r="0.77" fill="#EDE6D6" opacity="0.52"></circle><circle cx="792.3" cy="352.2" r="0.69" fill="#EDE6D6" opacity="0.49"></circle><circle cx="870.0" cy="438.9" r="0.78" fill="#EDE6D6" opacity="0.58"></circle><circle cx="112.8" cy="40.7" r="0.64" fill="#EDE6D6" opacity="0.80"></circle><circle cx="677.3" cy="187.9" r="0.51" fill="#EDE6D6" opacity="0.31"></circle><circle cx="195.1" cy="160.0" r="0.93" fill="#EDE6D6" opacity="0.85"></circle><circle cx="372.6" cy="269.5" r="1.05" fill="#EDE6D6" opacity="0.34"></circle><circle cx="864.1" cy="139.8" r="1.10" fill="#EDE6D6" opacity="0.64"></circle><circle cx="179.3" cy="21.8" r="0.87" fill="#EDE6D6" opacity="0.61"></circle><circle cx="445.2" cy="87.2" r="1.12" fill="#EDE6D6" opacity="0.84"></circle><circle cx="679.8" cy="476.0" r="0.86" fill="#EDE6D6" opacity="0.47"></circle><circle cx="198.2" cy="41.5" r="1.19" fill="#EDE6D6" opacity="0.42"></circle><circle cx="826.7" cy="527.2" r="0.89" fill="#EDE6D6" opacity="0.79"></circle><circle cx="133.2" cy="427.4" r="0.69" fill="#EDE6D6" opacity="0.87"></circle><circle cx="165.6" cy="586.7" r="0.55" fill="#EDE6D6" opacity="0.87"></circle><circle cx="806.4" cy="481.0" r="1.04" fill="#EDE6D6" opacity="0.88"></circle><circle cx="229.8" cy="234.6" r="0.62" fill="#EDE6D6" opacity="0.38"></circle><circle cx="418.7" cy="522.8" r="1.03" fill="#EDE6D6" opacity="0.37"></circle><circle cx="173.5" cy="528.3" r="0.67" fill="#EDE6D6" opacity="0.52"></circle><circle cx="682.4" cy="189.8" r="0.66" fill="#EDE6D6" opacity="0.60"></circle><circle cx="95.1" cy="181.7" r="1.20" fill="#EDE6D6" opacity="0.58"></circle><circle cx="198.0" cy="378.0" r="1.05" fill="#EDE6D6" opacity="0.62"></circle><circle cx="615.6" cy="186.0" r="0.94" fill="#EDE6D6" opacity="0.55"></circle><circle cx="807.9" cy="360.9" r="0.81" fill="#EDE6D6" opacity="0.79"></circle><circle cx="383.8" cy="581.4" r="0.68" fill="#EDE6D6" opacity="0.73"></circle><circle cx="0.7" cy="482.2" r="0.67" fill="#EDE6D6" opacity="0.82"></circle><circle cx="302.0" cy="50.4" r="0.77" fill="#EDE6D6" opacity="0.75"></circle><circle cx="836.0" cy="191.2" r="1.10" fill="#EDE6D6" opacity="0.45"></circle><circle cx="493.7" cy="483.2" r="1.17" fill="#E8C87E" opacity="0.92"></circle><circle cx="537.5" cy="24.9" r="1.26" fill="#E8C87E" opacity="0.95"></circle><circle cx="656.1" cy="130.5" r="1.25" fill="#E8C87E" opacity="0.76"></circle><circle cx="581.2" cy="281.1" r="1.21" fill="#E8C87E" opacity="0.91"></circle><circle cx="858.7" cy="121.0" r="1.04" fill="#E8C87E" opacity="0.92"></circle><circle cx="669.3" cy="250.7" r="1.14" fill="#E8C87E" opacity="0.84"></circle><circle cx="723.1" cy="446.1" r="1.39" fill="#E8C87E" opacity="0.77"></circle></svg>